<svg xmlns="http://www.w3.org/2000/svg" viewBox="0 0 118 54">
    <style>
        .a { fill: #000000; }
        @media (prefers-color-scheme: dark) {
            .a { fill: #ffffff; }
        }
    </style>

    <path class="a" d="M70,26H68a4,4,0,0,1,4,4H68a3.99443,3.99443,0,0,1-3.30475-1.74884A11.95966,11.95966,0,0,1,56,32H50.5a.5.5,0,0,1-.5-.5v-11a.5.5,0,0,1,.5-.5H67.48285l.0144.00018a.50528.50528,0,0,1,.49176.51831,12.03993,12.03993,0,0,1-.312,2.236A3.97,3.97,0,0,1,70,22h4A4,4,0,0,1,70,26Zm6-10H42V12h8V4.5a.5.5,0,0,1,.5-.5H68v8h8Z" />
    <path class="a" d="M10,46H22v2H10Zm86,0h12v2H96Z" />
    <path class="a" d="M32,48.46484h1.41957v-3.4082H32V43.66406h3.18531v1.752h.08352a3.56464,3.56464,0,0,1,.233-.65332,2.13156,2.13156,0,0,1,.3816-.56446,1.68872,1.68872,0,0,1,.56657-.38965,1.98485,1.98485,0,0,1,.78747-.14453h.585v1.63282H36.50973a1.23331,1.23331,0,0,0-.98991.38769,1.40971,1.40971,0,0,0-.33451.95117v1.8291h2.02835v1.39161H32Zm10.84784.26368H42.776a2.20362,2.20362,0,0,1-.63793.90039A1.75476,1.75476,0,0,1,40.96267,50a2.14489,2.14489,0,0,1-.81126-.14941,1.64867,1.64867,0,0,1-.6326-.4502,2.18327,2.18327,0,0,1-.41169-.73242,3.03642,3.03642,0,0,1-.14905-.99512V43.66406H40.7238v3.76856q0,1.1997,1.038,1.20019a1.50266,1.50266,0,0,0,.4-.05469.99754.99754,0,0,0,.34567-.168.921.921,0,0,0,.24469-.28125.79052.79052,0,0,0,.09565-.39649V43.66406h1.76572v6.19239H42.84784ZM48.732,50a4.665,4.665,0,0,1-1.78369-.31152,2.52956,2.52956,0,0,1-1.13945-.85157l.99041-.9248a2.552,2.552,0,0,0,.84136.61816,2.60788,2.60788,0,0,0,1.10352.22266,1.74774,1.74774,0,0,0,.82339-.16211.53224.53224,0,0,0,.29809-.498.3739.3739,0,0,0-.20293-.36621,2.01314,2.01314,0,0,0-.56078-.16211l-.9904-.15625a4.08093,4.08093,0,0,1-.77533-.18554,2.02692,2.02692,0,0,1-.62043-.3418,1.59678,1.59678,0,0,1-.41753-.52832,1.684,1.684,0,0,1-.15536-.75586,1.79638,1.79638,0,0,1,.73989-1.52441,3.41145,3.41145,0,0,1,2.076-.55176,4.30652,4.30652,0,0,1,1.54532.24609,2.43934,2.43934,0,0,1,1.02.70215l-.88263,1.0078a2.24724,2.24724,0,0,0-.704-.50389A2.40916,2.40916,0,0,0,48.899,44.7686q-1.02611,0-1.02585.624a.38424.38424,0,0,0,.20295.37793,2.00861,2.00861,0,0,0,.56078.16211l.97827.15625a4.07989,4.07989,0,0,1,.77532.18554,2.11393,2.11393,0,0,1,.62677.3418,1.57077,1.57077,0,0,1,.42336.52832,1.684,1.684,0,0,1,.15536.75586,1.82374,1.82374,0,0,1-.74572,1.53612A3.4557,3.4557,0,0,1,48.732,50Zm7.51688-.14355a1.84182,1.84182,0,0,1-1.42006-.50293,1.81011,1.81011,0,0,1-.4651-1.28028v-3.0166H52.69313V43.66406h1.08605a.81537.81537,0,0,0,.56078-.15527.77849.77849,0,0,0,.167-.57617V41.48047h1.62252v2.18359h2.39833v1.39258H56.12951v3.4082h2.39833v1.39161Zm3.58487-1.39161H61.7194V42.36816H59.83375v-1.3916h3.65191v7.48828h1.88468v1.39161H59.83375ZM69.58146,50a3.04163,3.04163,0,0,1-2.34979-.86328,3.32947,3.32947,0,0,1-.80009-2.35254,4.16775,4.16775,0,0,1,.2088-1.36133,2.94213,2.94213,0,0,1,.59717-1.03223,2.525,2.525,0,0,1,.94282-.64843,3.33853,3.33853,0,0,1,1.24675-.22168,3.29672,3.29672,0,0,1,1.24091.22168,2.59612,2.59612,0,0,1,.9302.62988,2.8274,2.8274,0,0,1,.59036.99023,3.82372,3.82372,0,0,1,.2088,1.30176v.52832H68.18615v.1084a1.29914,1.29914,0,0,0,.37.96582,1.47781,1.47781,0,0,0,1.08556.36621,1.98382,1.98382,0,0,0,.94282-.21,2.24727,2.24727,0,0,0,.6797-.55859l.95452,1.04394a2.9991,2.9991,0,0,1-1.00207.76856A3.63329,3.63329,0,0,1,69.58146,50Zm-.14273-5.208a1.2053,1.2053,0,0,0-.91276.35449,1.31733,1.31733,0,0,0-.33984.95411v.0957H70.668v-.0957a1.34511,1.34511,0,0,0-.32819-.96A1.179,1.179,0,0,0,69.43873,44.792Zm4.10342,3.67285H74.9627v-3.4082H73.5421V43.66406h3.1858v1.752h.08352a3.49416,3.49416,0,0,1,.233-.65332,2.11981,2.11981,0,0,1,.3816-.56446,1.68088,1.68088,0,0,1,.567-.38965,1.9798,1.9798,0,0,1,.78748-.14453h.58453v1.63282H78.05232a1.23641,1.23641,0,0,0-.9904.38769,1.4118,1.4118,0,0,0-.334.95117v1.8291h2.02835v1.39161H73.5421ZM83.13543,50a4.66331,4.66331,0,0,1-1.78371-.31152,2.52578,2.52578,0,0,1-1.13993-.85157l.99041-.9248a2.56024,2.56024,0,0,0,.84088.61816,2.61172,2.61172,0,0,0,1.104.22266,1.74908,1.74908,0,0,0,.82339-.16211.53139.53139,0,0,0,.2981-.498.37467.37467,0,0,0-.20293-.36621,2.01473,2.01473,0,0,0-.56026-.16211l-.99041-.15625a4.086,4.086,0,0,1-.77582-.18554,2.02686,2.02686,0,0,1-.62044-.3418,1.59662,1.59662,0,0,1-.41752-.52832,1.67738,1.67738,0,0,1-.15536-.75586,1.79636,1.79636,0,0,1,.73989-1.52441,3.41246,3.41246,0,0,1,2.076-.55176,4.30006,4.30006,0,0,1,1.54483.24609,2.43474,2.43474,0,0,1,1.02051.70215l-.88263,1.0078a2.24174,2.24174,0,0,0-.704-.50389,2.40988,2.40988,0,0,0-1.038-.20411q-1.02683,0-1.02633.624a.38346.38346,0,0,0,.20294.37793,2.01463,2.01463,0,0,0,.56026.16211l.97874.15625a4.08607,4.08607,0,0,1,.77583.18554,2.11727,2.11727,0,0,1,.62628.3418,1.57663,1.57663,0,0,1,.42335.52832,1.69053,1.69053,0,0,1,.15536.75586,1.82246,1.82246,0,0,1-.74572,1.53612A3.4531,3.4531,0,0,1,83.13543,50Z" />
</svg>