<svg xmlns="http://www.w3.org/2000/svg" viewBox="0 0 34 32">
    <style>
        .a { fill: #000000; }
        @media (prefers-color-scheme: dark) {
        .a { fill: #ffffff; }
        }
    </style>

    <path class="a" d="M32,22H28a4,4,0,0,0-4,4H22a4,4,0,0,0,4,4h4a4,4,0,0,0-4-4h2A4,4,0,0,0,32,22Z" />
    <path class="a" d="M9,31V21H24.95508A10.97052,10.97052,0,0,1,14,31Z" />
    <path class="a" d="M23.80175,22A9.97326,9.97326,0,0,1,14,30H10V22H23.80175m1.68111-2H8.5a.5.5,0,0,0-.5.5v11a.5.5,0,0,0,.5.5H14A12.00035,12.00035,0,0,0,25.989,20.51848.5052.5052,0,0,0,25.48286,20Z" />
    <path class="a" d="M8.5,14H12a0,0,0,0,1,0,0v0a4,4,0,0,1-4,4H8a0,0,0,0,1,0,0V14.5A.5.5,0,0,1,8.5,14Z" />
    <path class="a" d="M18.5,14H22a0,0,0,0,1,0,0v0a4,4,0,0,1-4,4h0a0,0,0,0,1,0,0V14.5A.5.5,0,0,1,18.5,14Z" />
    <path class="a" d="M30,4.5V8H26V.5a.5.5,0,0,0-.5-.5h-7a.5.5,0,0,0-.5.5V2H14V.5a.5.5,0,0,0-.5-.5h-5A.5.5,0,0,0,8,.5V8H4V4.5A.5.5,0,0,0,3.5,4H.5a.5.5,0,0,0-.5.5V8a4,4,0,0,0,4,4H30a4,4,0,0,0,4-4V4.5a.5.5,0,0,0-.5-.5h-3A.5.5,0,0,0,30,4.5ZM22,8H12V4h2V5.5a.5.5,0,0,0,.5.5h3a.5.5,0,0,0,.5-.5V4h4Z" />
</svg>