<svg xmlns="http://www.w3.org/2000/svg" viewBox="0 0 34 32">
    <style>
        .a { fill: #000000; }
        @media (prefers-color-scheme: dark) {
        .a { fill: #ffffff; }
        }
    </style>
    <path class="a" d="M34,10v4H0V10H8V2.5A.5.5,0,0,1,8.5,2H26v8ZM25.677,20.75452a12.03954,12.03954,0,0,0,.312-2.236.50528.50528,0,0,0-.49176-.51831L25.48285,18H8.5a.5.5,0,0,0-.5.5v11a.5.5,0,0,0,.5.5H14a11.95968,11.95968,0,0,0,8.69525-3.74884A3.99442,3.99442,0,0,0,26,28h4a4,4,0,0,0-4-4h2a4,4,0,0,0,4-4H28A3.97023,3.97023,0,0,0,25.677,20.75452Z" />
</svg>