<svg xmlns="http://www.w3.org/2000/svg" viewBox="0 0 116 88">
    <style>
        .gold {fill: #c99134; }

        .a { fill: #000000; }
        @media (prefers-color-scheme: dark) {
        .a { fill: #ffffff; }
        }
    </style>

    <path class="a" d="M17.861,60.10706A.76031.76031,0,0,1,17,59.39642V52.74274a2.60676,2.60676,0,0,0-2.67755-2.46149A6.06117,6.06117,0,0,0,17,45.87158a5.13625,5.13625,0,0,0-1.398-3.84283,6.38847,6.38847,0,0,0-4.56348-1.7475,6.453,6.453,0,0,0-4.015,1c-.238-.32068-1.00092-1.16632-1.62305-1.22638C4.50018,39.96753,3,40.46039,3,41.88483a1.29679,1.29679,0,0,1,1.05035-.3924A1.12014,1.12014,0,0,1,5,42.29358V49.313l-1.4812,1.9682,1.51135,1.96161L5,60.35571a1.23618,1.23618,0,0,1-.95709,1.16217c-.95728.09015-1.007-.16485-1.00708-.225a1.75908,1.75908,0,0,0,1.99432,1.77441,2.83231,2.83231,0,0,0,1.99487-.97v-.00287a2.26189,2.26189,0,0,0,1.99555.56671,2.18765,2.18765,0,0,0,1.99133-2.01562c-.02588.08715-.17706.27752-.99805.34576A1.01224,1.01224,0,0,1,9,60.03778V52.2782c.99786-.01148,2.0166.0108,3.01489,0C12.56628,52.273,13,52.581,13,53.08826v7.35852a1.66973,1.66973,0,0,0,.31287.9295,2.28207,2.28207,0,0,0,1.69763.74591,4.9589,4.9589,0,0,0,3.99591-2.09765C18.61938,60.05792,18.23914,60.08362,17.861,60.10706ZM13.01331,47.49713A1.85767,1.85767,0,0,1,11.036,49.28125c-.66547-.00769-1.37067.01294-2.03595.00494v-6l2.01666-.00494a2.11321,2.11321,0,0,1,1.99665,2Zm18.987,2.07745,1.51647,1.70667-1.5133,1.5365-.00317,3.439c.00006,2.57166-2.58344,4.77576-5.7685,4.99463q-.23281.01484-.46557.02985c-3.18494.22491-5.76514-1.80762-5.76514-4.611V52.96356l-1.51447-1.68231L20,49.47015V44.24a4.02234,4.02234,0,0,0-.16125-.96924c-.10364-.36078-.15876-.54413-.31855-.67407-.478-.38995-1.48626.01141-1.555.041a2.66372,2.66372,0,0,1,2.78394-1.80762A2.36532,2.36532,0,0,1,22,41.28125a2.09453,2.09453,0,0,1,1.251-.285,3.15667,3.15667,0,0,1,2.78552,2.072c-.06873-.03278-1.07776-.52662-1.556-.2027-.15991.10876-.215.28076-.31867.62085A3.64165,3.64165,0,0,0,24,44.414v5.1015l1.51471,1.76575L23.99933,52.9165v4.17255a1.83834,1.83834,0,0,0,2.0899,1.67249q.4086-.01987.8172-.03919A2.05222,2.05222,0,0,0,29,56.90247L28.99927,52.864,27.484,51.28125l1.51532-1.7157c0-2.797.00073-3.07132.00073-5.86841a.97149.97149,0,0,0-.65637-.6477,3.12368,3.12368,0,0,0-1.27905.06665,2.34058,2.34058,0,0,1,2.28991-1.83484,2.31281,2.31281,0,0,1,1.14679.67419,2.13139,2.13139,0,0,1,1.14691-.67419c.8877-.05139,1.86774.90613,2.29077,2.11578a3.3155,3.3155,0,0,0-1.27966-.16833A.86407.86407,0,0,0,32,43.812Q31.99844,46.6933,32.00031,49.57458ZM70,26H68a4,4,0,0,1,4,4H68a3.99442,3.99442,0,0,1-3.30475-1.74884A11.95968,11.95968,0,0,1,56,32H50.5a.5.5,0,0,1-.5-.5v-11a.5.5,0,0,1,.5-.5H67.48285l.0144.00018a.50528.50528,0,0,1,.49176.51831,12.03884,12.03884,0,0,1-.312,2.236A3.97,3.97,0,0,1,70,22h4A4,4,0,0,1,70,26Zm6-10H42V12h8V4.5a.5.5,0,0,1,.5-.5H68v8h8ZM47.51355,53.99982a5.67282,5.67282,0,0,1,.1015,3.07092,6.24154,6.24154,0,0,1-4.29816,3.15631,11.088,11.088,0,0,1-5.97857-.3277,4.06053,4.06053,0,0,1-1.939-1.48138,2.83532,2.83532,0,0,1-.38635-1.62738q-.00174-1.02833-.00354-2.0567a.6429.6429,0,0,0-.36023-.55323,1.10925,1.10925,0,0,0-.85822.06488c-.16613.08136-.294.20459-.34606.17664-.03339-.01794-.01331-.08557,0-.12592a1.40094,1.40094,0,0,1,.75-.94989,1.45813,1.45813,0,0,1,.25378-.09436,2.20932,2.20932,0,0,1,1.565.327,1.25368,1.25368,0,0,1,.73987-.60834,1.678,1.678,0,0,1,1.35364.22077,1.165,1.165,0,0,1,.48224.87921c.00048.05328-.00495.13061-.05475.14746-.09723.033-.21-.21655-.50519-.30444a.97966.97966,0,0,0-.76654.09936.5561.5561,0,0,0-.24841.34656q.00136.94794.00287,1.89563a1.82672,1.82672,0,0,0,.2406.93927,2.8856,2.8856,0,0,0,1.00134.95141,3.84943,3.84943,0,0,0,2.78717.38367,3.09834,3.09834,0,0,0,1.57672-.95782,2.28056,2.28056,0,0,0,.19708-2.53461,3.64787,3.64787,0,0,0-.99707-1.1546c-.22436-.19391-.43793-.36133-.647-.51728q-1.122.01593-2.24371.03327-.32868-.89263-.65723-1.78986c-.21082-.12842-.42639-.26483-.65338-.42059a7.46706,7.46706,0,0,1-2.30023-2.01837,4.48807,4.48807,0,0,1,.26355-5.31928,5.627,5.627,0,0,1,1.94336-1.43011,7.60532,7.60532,0,0,1,2.5896-.60871,9.925,9.925,0,0,1,1.13134.00171,9.26876,9.26876,0,0,1,4.09693,1.46857c.65625-.06909,1.08618-1.01318,1.6535-1.00061v6H45V46.5556a2.09893,2.09893,0,0,0-.61163-1.65625,4.21948,4.21948,0,0,0-4.42731-.73132,2.179,2.179,0,0,0-1.12463,1.90131c.01953.34021.17761,1.08508,2.40258,2.785q1.16255.1084,2.32514.21417.1658.77838.33166,1.55512a18.788,18.788,0,0,1,2.30365,1.41321A4.76486,4.76486,0,0,1,47.51355,53.99982ZM112.87244,61.189a.97177.97177,0,0,1-.87244-.923V52.93793a2.64419,2.64419,0,0,0-2.66107-2.65668A6.7274,6.7274,0,0,0,112,45.37158a5.31253,5.31253,0,0,0-1.38293-4.01825,5.61541,5.61541,0,0,0-4.56049-1.30542A8.37986,8.37986,0,0,0,102,41.6347a2.30659,2.30659,0,0,0-1.58582-.65307c-.90173.06763-2.40509.7362-2.40515,1.97967a1.60783,1.60783,0,0,1,1.05262-.4837c.48822-.02966.75128.42456.93835.80365v6.16949l-1.47107,1.83545,1.51422,2c0,2.154-.0072,3.84607-.0072,6-.00006.37555-.3924,1.142-.98181,1.1001-.95923-.06634-1.00916-.29767-1.00916-.35058a2.09736,2.09736,0,0,0,1.99817,1.91052,2.37975,2.37975,0,0,0,1.99768-.548v-.00268a2.853,2.853,0,0,0,1.99719.894,1.735,1.735,0,0,0,1.99189-1.642c-.02588.08313-.17694.24927-.99817.18347a1.20116,1.20116,0,0,1-.99579-1.08245l.00207-7.47486,2.962.00751a1.01056,1.01056,0,0,1,1,.98682v7.49621a2.0919,2.0919,0,0,0,.33008,1.01288,2.83936,2.83936,0,0,0,1.69623,1.09882,3.83854,3.83854,0,0,0,3.98913-1.59473C113.62927,61.25482,113.24982,61.22546,112.87244,61.189ZM108,47.34247a1.98942,1.98942,0,0,1-2,1.93878h-2v-6c.66565-.041,1.33453-.04193,2-.08472a1.80428,1.80428,0,0,1,2,1.76935Zm-13-.06122V45.28619a5.09065,5.09065,0,0,0-2.9671-1.67639,4.10334,4.10334,0,0,0-1.99988.08771,3.37829,3.37829,0,0,0-.99707.58868L89,49.28125h2a4.09715,4.09715,0,0,0,.647-.07709.41522.41522,0,0,0,.14063-.04864c.07776-.04645.12958-.12122.1828-.33411a1.2638,1.2638,0,0,0,.06244-.40332.93636.93636,0,0,0-.5603-.8172.12066.12066,0,0,1-.07251-.01593.07991.07991,0,0,1-.02826-.09747c.04583-.06708.35614.01153.43054.03045a2.37026,2.37026,0,0,1,1.14337.67682,2.12394,2.12394,0,0,1-.24353,2.57325,2.64913,2.64913,0,0,1-.66931.51818,1.81055,1.81055,0,0,1,.66931.3761,2.32989,2.32989,0,0,1,.24353,2.7096,2.35544,2.35544,0,0,1-1.14337.671c-.07446.01855-.38477.09558-.43054.02832a.07954.07954,0,0,1,.02826-.09729.11964.11964,0,0,1,.07251-.01557.9303.9303,0,0,0,.5603-.81445,1.26316,1.26316,0,0,0-.06244-.40362c-.05322-.2132-.105-.28815-.1828-.335A.41118.41118,0,0,0,91.647,53.356,4.28092,4.28092,0,0,0,91,53.28125H89v4.90167a3.54217,3.54217,0,0,0,1.033.53687,4.10584,4.10584,0,0,0,1.99988.09735A5.06323,5.06323,0,0,0,95,57.25146V55.28619h2v6c-.91-.072-1.46143-1.11077-2-1.14221a8.52879,8.52879,0,0,1-.96753.488,8.86927,8.86927,0,0,1-3.99945.65423,6.14521,6.14521,0,0,1-3.08423-1.2099,2.61841,2.61841,0,0,1-1.05426.37708,3.24407,3.24407,0,0,1-1.6737-.33435c-.17481-.07434-1.2096-.52051-1.4422-1.21094-.01008-.03015-.06574-.20032.0039-.23144.13318-.05976.46857.50488,1.011.53924a1.76158,1.76158,0,0,0,.65906-.081.6219.6219,0,0,0,.378-.23877A3.4414,3.4414,0,0,0,85,57.691V52.82117c-.50543-.54633-.97931-1.002-1.4848-1.53992.50549-.53607.97931-1.16229,1.4848-1.7066V44.70477a3.44841,3.44841,0,0,0-.16943-1.20587.62516.62516,0,0,0-.378-.24023,1.76365,1.76365,0,0,0-.65906-.0835c-.54242.03235-.87775.59583-1.011.53552-.06964-.03137-.014-.20135-.0039-.23144.2326-.68958,1.26745-1.132,1.4422-1.20563a3.23581,3.23581,0,0,1,1.6737-.32776,2.62567,2.62567,0,0,1,1.05426.38147A6.0623,6.0623,0,0,1,90.033,41.28619a8.79031,8.79031,0,0,1,3.99945.519A8.53685,8.53685,0,0,1,95,42.29852c.53857-.02856,1.09-.95044,2-1.01727v6Zm-13,7v2.50952c-.00006,2.21869-2.17487,3.901-4.93915,3.79181q-.50052-.01812-1.001-.03546a6.17157,6.17157,0,0,1-3.0697-.92883,2.67542,2.67542,0,0,1-1.02038.25689c-2.10157.21039-3.70252-.86248-3.61408-1.024.03852-.0708.12317.02478,1.05017-.03064a1.92636,1.92636,0,0,0,.98609-.24958,1.43674,1.43674,0,0,0,.29162-.24853A1.00224,1.00224,0,0,0,71,57.71912V52.7146c-.50586-.51483-.95782-.92249-1.46368-1.43335.50586-.51.95782-1.12665,1.46368-1.6405V45.03a2.60219,2.60219,0,0,0-.10034-.84265c-.10382-.31037-.15906-.46753-.31922-.57038-.47888-.30725-1.47564.11206-1.54449.14063a2.995,2.995,0,0,1,2.77588-1.79138,2.18054,2.18054,0,0,1,1.22412.48065,2.536,2.536,0,0,1,1.2818-.54669,2.72245,2.72245,0,0,1,2.7182,1.6864c-.06879-.02735-1.00806-.41-1.487-.07642-.16.11139-.21527.273-.31909.59149A3.94757,3.94757,0,0,0,75,44.96088v4.66583c.5058.51642,1.07025,1.13275,1.576,1.65454-.50574.52051-1.07019.9408-1.576,1.456v5.05463c.00006.64362.731,1.1839,1.56036,1.20929A2.13811,2.13811,0,0,0,79,57.10748V54.28125C80.00092,54.29578,80.99927,54.26471,82,54.28125ZM68.04181,45.767a2.54228,2.54228,0,0,1-.84833,1.4292,1.99973,1.99973,0,0,1-1.389.25012c-.01983-.01209-.085-.05164-.07421-.0882.01348-.04577.13769-.05926.16961-.06524.13-.02472.37586-.36756.37586-1.12854a.17725.17725,0,0,0-.049-.12751.27783.27783,0,0,0-.19428-.03833L60.036,46,60,51.28619l1.57581.99506L60,53.28619v5.06226c.05182.262.25671.44318.8147.5899a2.36868,2.36868,0,0,0,1.52691-.17791l.07825.05963a2.94842,2.94842,0,0,1-2.36859,1.46612A3.54955,3.54955,0,0,1,58.036,59.812a3.41293,3.41293,0,0,1-1.97937.47424,2.93739,2.93739,0,0,1-2.36859-1.4591l.07825-.05982a2.36554,2.36554,0,0,0,1.52685.1756c.558-.14789.655-.32916.70691-.59143V53.28619l-1.46606-1.00494L56,51.28619V45.99847c-1.92194-.00476-4.04028.01709-5.962,0a.29375.29375,0,0,0-.19421.07294.17776.17776,0,0,0-.049.12763c0,.76226.24585,1.063.37579,1.08783.03192.006.15613.01965.16962.06549.01086.03668-.05432.07629-.07416.08831a1.716,1.716,0,0,1-1.389-.25158,2.00184,2.00184,0,0,1-.84826-1.4328,1.49867,1.49867,0,0,1,.76458-1.33112,1.54915,1.54915,0,0,1-.76458-1.352,2.12044,2.12044,0,0,1,.89428-1.38733,1.718,1.718,0,0,1,1.343-.24054c.01984.01245.085.05347.07416.09-.01349.04553-.1377.05639-.16962.0617-.12994.02186-.39514.322-.39514,1.08411a.39436.39436,0,0,0,.06616.20648c.07672.06623.11188.11084.19641.11206l15.99451-.0061a.23374.23374,0,0,0,.19171-.08563.20678.20678,0,0,0,.05158-.14856c.00006-.76093-.24591-1.12506-.37586-1.1471-.03192-.00543-.15606-.01648-.16961-.062-.01081-.03644.05438-.07721.07421-.08966a1.57854,1.57854,0,0,1,1.34906.194,2.05975,2.05975,0,0,1,.88825,1.43482,1.54325,1.54325,0,0,1-.76465,1.3482A1.498,1.498,0,0,1,68.04181,45.767Z" />
    <path class="gold" d="M64.00385,82.23879V78.136c0-.8604-.63813-1.74434-1.37568-1.74434A4.20144,4.20144,0,0,0,64,73.48847a3.92263,3.92263,0,0,0-.73553-2.43608,2.75836,2.75836,0,0,0-2.26966-1.052,3.15011,3.15011,0,0,0-1.998.82673,1.09126,1.09126,0,0,0-2.00354.69705.68189.68189,0,0,1,.52319-.27728c.24261,0,.3949.173.48785.42589l-.00042,4.161-.7522,1.13565L58.00385,78v4.29341c0,.24331-.19819.63154-.49115.63154-.47681,0-.50159-.15068-.50159-.18543a1.16385,1.16385,0,0,0,.99316,1.22983,1.14971,1.14971,0,0,0,.99323-.53455v-.00171a1.06694,1.06694,0,0,0,1.98407-.67185c-.01288.0527-.08808.16349-.49658.16349-.296,0-.48114-.38858-.48114-.63232V78h1.64941c.27429,0,.35059.13882.35059.45882v4.27494a1.355,1.355,0,0,0,.12225.60106,1.21294,1.21294,0,0,0,.84424.63453c.65124.16321,1.42846-.33645,1.98639-1.23559-.19233.00527-.38129.00555-.56928.0042C64.15265,82.73632,64.00385,82.51273,64.00385,82.23879Zm-2-7.23879a.96588.96588,0,0,1-1.0199,1h-.9801V72h1a.95022.95022,0,0,1,1,1Zm9.0039,0V72.91546A2.89535,2.89535,0,0,0,69.482,71.7567a1.47741,1.47741,0,0,0-.99316,0,1.36971,1.36971,0,0,0-.48108.34251V76h1.01459a1.15826,1.15826,0,0,0,.28259-.04268.16793.16793,0,0,0,.06983-.03261c.03863-.03141.06439-.08239.09082-.22808a1.16828,1.16828,0,0,0,.031-.27615.67278.67278,0,0,0-.27826-.56745.04708.04708,0,0,1-.036-.01189.06989.06989,0,0,1-.014-.06751c.02277-.04557.17682.01268.21381.02656a1.17121,1.17121,0,0,1,.447,1.8655A1.32638,1.32638,0,0,1,69.49658,77a.82826.82826,0,0,1,.33246.24535,1.34037,1.34037,0,0,1,.121,1.46179,1.22178,1.22178,0,0,1-.56793.47646c-.037.014-.191.07213-.21381.02656a.06974.06974,0,0,1,.014-.06744.04708.04708,0,0,1,.036-.01189.673.673,0,0,0,.27826-.56752,1.16812,1.16812,0,0,0-.031-.27608c-.02643-.14569-.05219-.19667-.09082-.22815a.1697.1697,0,0,0-.06983-.03261A1.7196,1.7196,0,0,0,69,78H68l.00775,3.8119a1.36854,1.36854,0,0,0,.48108.34244,1.47692,1.47692,0,0,0,.99316,0,2.89525,2.89525,0,0,0,1.52576-1.15869V80h1v4c-.45221,0-.76837-1.059-1.03595-1.059a4.11243,4.11243,0,0,1-.49463.43373A3.59162,3.59162,0,0,1,68.48883,84a2.40921,2.40921,0,0,1-1.53137-.78937,1.16633,1.16633,0,0,1-.52338.30527,1.14436,1.14436,0,0,1-.83075-.18023,1.44465,1.44465,0,0,1-.71576-.82686c-.005-.02143-.03265-.14284.0019-.16719.06616-.0465.23254.35141.50177.35952a.64826.64826,0,0,0,.32714-.07783.35538.35538,0,0,0,.18763-.18208,3.28015,3.28015,0,0,0,.10174-.86624L66,78l-.74689-1,.75464-1-.002-3.66395a3.30765,3.30765,0,0,0-.09979-.86617.35513.35513,0,0,0-.18763-.18208.64764.64764,0,0,0-.32714-.07783c-.26923.00812-.43561.406-.50177.35946-.03455-.02436-.0069-.14569-.0019-.16713a1.44415,1.44415,0,0,1,.71576-.82686,1.144,1.144,0,0,1,.83075-.18023,1.16558,1.16558,0,0,1,.52338.30527,2.32345,2.32345,0,0,1,1.53137-.70012,3.55075,3.55075,0,0,1,1.98639.59758c.24676.15488.40985.28063.53253.37213.26758,0,.54779-.96971,1-.96971V75ZM56.74481,77,56.021,76c-.00037-.30646-.01575-.97223-.05762-1.47919a10.76736,10.76736,0,0,0-.20123-1.54413,4.3095,4.3095,0,0,0-1.53522-2.56823,2.00379,2.00379,0,0,0-2.42493,0,4.39912,4.39912,0,0,0-1.51459,2.64819,9.47068,9.47068,0,0,0-.22174,1.43329C50.0238,74.99689,50.00037,75.69354,50,76l-.71979,1L50,78c.00037.30646.0238.97968.06567,1.48663a8.68122,8.68122,0,0,0,.22174,1.36774A4.39881,4.39881,0,0,0,51.802,83.50256a2.07988,2.07988,0,0,0,2.42493,0,4.39881,4.39881,0,0,0,1.51459-2.64819,8.78557,8.78557,0,0,0,.22711-1.374c.04187-.5069.031-1.174.03137-1.48041Zm-2.73907-1-.75269,1L54,78v2.46936c-.0061.15564.01227.37134-.006.64166a2.12585,2.12585,0,0,1-.08911.61505A1.43682,1.43682,0,0,1,53.61,82.427a.73142.73142,0,0,1-1.191,0,1.38866,1.38866,0,0,1-.29914-.67981,2.14849,2.14849,0,0,1-.07055-.57031c-.01832-.27032-.0221-.55188-.02826-.70752L52,78l.772-1-.751-1V73.50037c.00616-.15564.01495-.38526.03326-.65552a4.198,4.198,0,0,1,.06982-.65985,1.43707,1.43707,0,0,1,.29487-.70093.73151.73151,0,0,1,1.191,0,1.437,1.437,0,0,1,.29486.70093,4.198,4.198,0,0,1,.06982.65985c.01831.27026.04022.49988.04633.65552Zm-5.996-2V72.32434a5.93105,5.93105,0,0,0-.52276-.54675.82766.82766,0,0,0-.90088-.00824,1.10854,1.10854,0,0,0-.34222.43182,1.69337,1.69337,0,0,0-.20368.65265,5.13611,5.13611,0,0,0-.03046.641V76l.73151,1L46,78l.0097,2.47491a5.13618,5.13618,0,0,0,.03046.641,1.69328,1.69328,0,0,0,.20368.65264,1.108,1.108,0,0,0,.34222.43177.82778.82778,0,0,0,.90088-.00818,5.92078,5.92078,0,0,0,.52276-.54682V80h1L49,84c-.264,0-.38409-.53149-.70587-.88373a1.68346,1.68346,0,0,1-2.53913.32245,3.22153,3.22153,0,0,1-.58294-.53717,3.853,3.853,0,0,1-.49951-.76642,8.084,8.084,0,0,1-.62482-3.01117C44.01727,78.715,44.00439,78.22089,44,78l-.75049-1,.76019-1c.0044-.22089.00757-.74524.038-1.15424a8.084,8.084,0,0,1,.62482-3.01117,3.85128,3.85128,0,0,1,.49951-.76641A3.22153,3.22153,0,0,1,45.755,70.531a1.68345,1.68345,0,0,1,2.53913.32244C48.61591,70.50122,48.736,70,49,70l.0097,4ZM10,76H38v2H10Zm68,0h28v2H78Z" />
</svg>