<svg xmlns="http://www.w3.org/2000/svg" viewBox="0 0 34 32">
    <style>
        .a { fill: #000000; }
        @media (prefers-color-scheme: dark) {
        .a { fill: #ffffff; }
        }
    </style>

	<path class="a" d="M32,20H28a3.96994,3.96994,0,0,0-2.323.75452,12.03549,12.03549,0,0,0,.312-2.236.5052.5052,0,0,0-.49176-.51831L25.48285,18H8.5a.5.5,0,0,0-.5.5v11a.5.5,0,0,0,.5.5H14a11.95959,11.95959,0,0,0,8.69525-3.74884A3.99448,3.99448,0,0,0,26,28h4a4,4,0,0,0-4-4h2A4,4,0,0,0,32,20Z" />
	<path class="a" d="M30,6.5V10H26V2.5a.5.5,0,0,0-.5-.5h-7a.5.5,0,0,0-.5.5V4H14V2.5a.5.5,0,0,0-.5-.5h-5a.5.5,0,0,0-.5.5V10H4V6.5A.5.5,0,0,0,3.5,6H.5a.5.5,0,0,0-.5.5V10a4,4,0,0,0,4,4H30a4,4,0,0,0,4-4V6.5a.5.5,0,0,0-.5-.5h-3A.5.5,0,0,0,30,6.5ZM22,10H12V6h2V7.5a.5.5,0,0,0,.5.5h3a.5.5,0,0,0,.5-.5V6h4Z" />
</svg>