<svg xmlns="http://www.w3.org/2000/svg" viewBox="0 0 160 24"><path d="M44.65674,21.2998a3.0394,3.0394,0,0,1-2.4126-.875,3.41057,3.41057,0,0,1-.76269-2.32519,6.92661,6.92661,0,0,1,.03759-.71191q.03737-.36327.13769-.9375l.92481-5.5H39.28173l.47461-2.8501h2.0752A1.92861,1.92861,0,0,0,43.044,7.7749a1.76782,1.76782,0,0,0,.53759-1.1748l.5-3.0503H47.4815l-.75,4.5503h5.05029l-.4751,2.8501H46.25635l-1.19971,7.19921.5.17579,3.8999-3.0752,1.79981,2.0498-1.5,1.29981q-.79981.67529-1.44971,1.1875a10.42993,10.42993,0,0,1-1.23779.85059,5.22593,5.22593,0,0,1-1.16211.5A4.62212,4.62212,0,0,1,44.65674,21.2998Zm14.6748,0a5.46483,5.46483,0,0,1-4.10009-1.4873A5.56943,5.56943,0,0,1,53.78174,15.75a9.66527,9.66527,0,0,1,.53711-3.3252,7.20855,7.20855,0,0,1,1.5-2.5,6.50936,6.50936,0,0,1,2.30029-1.5747,7.71558,7.71558,0,0,1,2.9624-.5503,5.464,5.464,0,0,1,4.10009,1.4878,5.57305,5.57305,0,0,1,1.44971,4.0625,9.672,9.672,0,0,1-.53711,3.3247,7.21883,7.21883,0,0,1-1.5,2.5A6.50666,6.50666,0,0,1,62.294,20.75,7.72834,7.72834,0,0,1,59.33154,21.2998Zm.27491-2.7246a2.73119,2.73119,0,0,0,1.9624-.72559,3.57849,3.57849,0,0,0,.98779-2.0752l.32471-1.94921c.0332-.1504.0625-.32081.08789-.5127a4.01545,4.01545,0,0,0,.03711-.5127,2.26958,2.26958,0,0,0-.5874-1.7124,2.235,2.235,0,0,0-1.61231-.5625,2.7301,2.7301,0,0,0-1.9624.7251,3.57547,3.57547,0,0,0-.98779,2.0752l-.32471,1.94921c-.03369.15039-.0625.32129-.08789.5127a4.02821,4.02821,0,0,0-.03711.51269,2.2681,2.2681,0,0,0,.5874,1.7129A2.23342,2.23342,0,0,0,59.60645,18.5752Zm17.27441-.67579h-.125a12.32427,12.32427,0,0,1-.78711,1.373,5.54578,5.54578,0,0,1-.92529,1.07031,3.86152,3.86152,0,0,1-1.14991.70508,4.43681,4.43681,0,0,1-3.20019-.09765,2.96636,2.96636,0,0,1-1.16211-1.0127,4.63007,4.63007,0,0,1-.6626-1.58789,9.13873,9.13873,0,0,1-.2124-2.04981,13.27046,13.27046,0,0,1,.4248-3.4873,8.56935,8.56935,0,0,1,1.2002-2.6748,5.6303,5.6303,0,0,1,1.8623-1.7251,4.882,4.882,0,0,1,2.4375-.6128,3.32428,3.32428,0,0,1,2.3125.71875,3.66607,3.66607,0,0,1,1.0625,2.00538h.17481L79.45605,2.5H83.106L80.03125,21H76.38086Zm-2.82471.55079a2.2377,2.2377,0,0,0,1.19971-.32325,3.739,3.739,0,0,0,.9751-.89453,6.92872,6.92872,0,0,0,.67529-.98144,4.00289,4.00289,0,0,0,.5-1.42774l.34961-2.062a1.79174,1.79174,0,0,0-.3125-1.56494,2.18107,2.18107,0,0,0-1.6875-.54639,2.6884,2.6884,0,0,0-2.07471.78272,4.29282,4.29282,0,0,0-.9751,2.248l-.25,1.49024a3.83444,3.83444,0,0,0-.07518.50976q-.0249.28566-.02491.60743a3.19053,3.19053,0,0,0,.38769,1.541A1.38859,1.38859,0,0,0,74.05615,18.4502Zm15.2749,2.8496A5.46485,5.46485,0,0,1,85.231,19.8125,5.56945,5.56945,0,0,1,83.78125,15.75a9.66527,9.66527,0,0,1,.53711-3.3252,7.20855,7.20855,0,0,1,1.5-2.5,6.50945,6.50945,0,0,1,2.30029-1.5747,7.71565,7.71565,0,0,1,2.9624-.5503,5.464,5.464,0,0,1,4.1001,1.4878,5.57305,5.57305,0,0,1,1.44971,4.0625,9.672,9.672,0,0,1-.53711,3.3247,7.21883,7.21883,0,0,1-1.5,2.5A6.50662,6.50662,0,0,1,92.29346,20.75,7.72832,7.72832,0,0,1,89.33105,21.2998Zm.27491-2.7246a2.7312,2.7312,0,0,0,1.96241-.72559,3.57843,3.57843,0,0,0,.98779-2.0752l.32471-1.94921c.0332-.1504.0625-.32081.08789-.5127a4.01545,4.01545,0,0,0,.03711-.5127,2.26953,2.26953,0,0,0-.58741-1.7124,2.235,2.235,0,0,0-1.61231-.5625,2.73005,2.73005,0,0,0-1.9624.7251,3.57541,3.57541,0,0,0-.98779,2.0752l-.32471,1.94921c-.03369.15039-.0625.32129-.08789.5127a4.02638,4.02638,0,0,0-.03711.51269,2.26806,2.26806,0,0,0,.5874,1.7129,2.23345,2.23345,0,0,0,1.61235.5625Zm14.49952,2.7246a2.48881,2.48881,0,0,1-1.6875-.46289,1.44412,1.44412,0,0,1-.51221-1.1123,3.7521,3.7521,0,0,1,.0249-.3877q.02416-.2373.125-.8125a2.1494,2.1494,0,0,1,.75-1.33691,2.81154,2.81154,0,0,1,1.875-.53809,2.49057,2.49057,0,0,1,1.6875.46289,1.4487,1.4487,0,0,1,.51221,1.11231,3.86127,3.86127,0,0,1-.0249.38769c-.01661.15821-.0586.42969-.125.8125a2.15625,2.15625,0,0,1-.75,1.3379A2.81688,2.81688,0,0,1,104.10548,21.2998Zm.32518-6.3496-.30029-6.314.8252-5.08643h4.02491l-.8501,5.08643-2.3999,6.314Zm15.521-1.5312c.00553-4.31647,2.8785-8.54763,7.07519-10.919h3.5747c-3.306,1.97586-6.39479,4.74307-7.10013,8.17388l-.39987,1.9911c-.62683,3.139,1.23593,6.42127,3.7749,8.63482h-3.2749A10.3606,10.3606,0,0,1,119.95167,13.419ZM142,10.3804c-.0043,4.31742-2.878,8.54776-7.07373,10.9194h-3.57518c3.30582-1.97581,6.39557-4.74308,7.10062-8.17388l.40036-1.99109C139.47743,7.99569,137.615,4.714,135.07666,2.5h3.27544A10.36251,10.36251,0,0,1,142,10.3804ZM16,0,0,24H32Zm2,22H14V18h4Zm-4-6V8h4v8Z" style="fill:#ffb74d"/></svg>